<svg width="165" height="237" viewBox="0 0 165 237" fill="none" xmlns="http://www.w3.org/2000/svg">
<path d="M121.268 193.267C142.027 193.267 151.475 147.302 151.475 129.873C151.475 116.288 142.102 108.056 129.779 108.056C117.533 108.056 107.591 113.322 107.467 119.843C107.467 137.052 104.438 193.267 121.268 193.267Z" fill="white" stroke="black" stroke-width="6.18192"/>
<path d="M45.4471 193.267C24.6881 193.267 15.2396 147.302 15.2396 129.873C15.2396 116.288 24.6131 108.056 36.9361 108.056C49.1822 108.056 59.1241 113.322 59.2476 119.843C59.2479 137.052 62.2768 193.267 45.4471 193.267Z" fill="white" stroke="black" stroke-width="6.18192"/>
<path d="M28.223 124.348L28.2229 124.347C28.2006 124.134 28.2438 124.011 28.2879 123.93C28.3401 123.835 28.439 123.722 28.6052 123.628C28.9495 123.432 29.4316 123.397 29.8805 123.66L31.4338 121.005L29.8786 123.659C45.2973 132.697 63.0821 137.878 82.4175 137.878C101.756 137.878 119.87 132.597 135.387 123.401C135.833 123.137 136.314 123.17 136.659 123.364C136.826 123.458 136.926 123.571 136.979 123.666C137.023 123.747 137.067 123.87 137.046 124.084C134.645 147.872 121.742 167.538 104.399 176.59L104.399 176.59C98.6709 179.581 94.7323 184.776 91.2729 189.338C91.2109 189.42 91.1491 189.502 91.0874 189.583L91.0869 189.584C88.2752 193.293 85.7304 196.614 82.6204 199.062C79.5104 196.614 76.9657 193.293 74.154 189.584L74.1535 189.583C74.0918 189.502 74.03 189.42 73.9679 189.338C70.5086 184.776 66.5699 179.581 60.8418 176.59L60.8415 176.59C43.5648 167.573 30.6946 148.021 28.223 124.348Z" fill="#FFDF6F" stroke="black" stroke-width="6.15052"/>
<ellipse cx="82.7392" cy="123.877" rx="54.4009" ry="18.1336" fill="black" stroke="black" stroke-width="6.18191"/>
<path d="M39.0537 154.374C39.0537 154.374 65.8867 163.441 83.1514 163.441C100.416 163.441 127.249 154.374 127.249 154.374" stroke="black" stroke-width="6.18191" stroke-linecap="round"/>
<circle cx="12.301" cy="12.301" r="12.301" transform="matrix(-1 0 0 1 43.8738 34.0328)" fill="black"/>
<path d="M29.5224 44.4888L52.4844 67.4507" stroke="black" stroke-width="6.15052"/>
<circle cx="132.031" cy="46.3339" r="12.301" fill="black"/>
<path d="M134.286 44.4888L111.324 67.4507" stroke="black" stroke-width="6.15052"/>
<path fill-rule="evenodd" clip-rule="evenodd" d="M35.0644 119.738C28.4345 116.582 24.576 109.494 25.8685 102.266C31.4159 71.2424 54.5347 47.974 82.212 47.974C109.956 47.974 133.12 71.3552 138.595 102.491C139.869 109.733 135.979 116.817 129.327 119.948C115.091 126.646 99.1916 130.391 82.417 130.391C65.4682 130.391 49.4123 126.568 35.0644 119.738Z" fill="#FFDF6F"/>
<path d="M138.595 102.491L135.567 103.024L138.595 102.491ZM35.0644 119.738L36.3862 116.961L35.0644 119.738ZM28.8958 102.807C34.2561 72.8302 56.4136 51.0493 82.212 51.0493V44.8987C52.6558 44.8987 28.5758 69.6546 22.8413 101.724L28.8958 102.807ZM82.212 51.0493C108.073 51.0493 130.276 72.9365 135.567 103.024L141.624 101.959C135.964 69.774 111.84 44.8987 82.212 44.8987V51.0493ZM128.017 117.165C114.183 123.675 98.7295 127.316 82.417 127.316V133.466C99.6536 133.466 116 129.618 130.636 122.73L128.017 117.165ZM82.417 127.316C65.9351 127.316 50.3299 123.599 36.3862 116.961L33.7425 122.514C48.4946 129.537 65.0013 133.466 82.417 133.466V127.316ZM135.567 103.024C136.588 108.829 133.479 114.595 128.017 117.165L130.636 122.73C138.479 119.039 143.15 110.636 141.624 101.959L135.567 103.024ZM22.8413 101.724C21.2925 110.386 25.9264 118.794 33.7425 122.514L36.3862 116.961C30.9426 114.37 27.8595 108.602 28.8958 102.807L22.8413 101.724Z" fill="black"/>
<path fill-rule="evenodd" clip-rule="evenodd" d="M46.8934 112.025C41.5567 109.852 38.3911 104.173 40.2403 98.716C45.943 81.8855 62.5784 69.7059 82.2118 69.7059C101.845 69.7059 118.481 81.8855 124.183 98.716C126.033 104.173 122.867 109.852 117.53 112.025C106.63 116.464 94.7068 118.91 82.2118 118.91C69.7169 118.91 57.7932 116.464 46.8934 112.025Z" fill="black"/>
<ellipse cx="96.358" cy="95.9481" rx="10.2509" ry="8.20069" fill="white"/>
<ellipse cx="67.0126" cy="95.953" rx="10.2509" ry="8.20069" fill="white"/>
</svg>
